<svg width="280" height="28" viewBox="0 0 280 28" xmlns="http://www.w3.org/2000/svg"><title fill="#000">logo--l.colors-black-white-grey</title><path d="M22.844 27.08h3.19V.633h-3.19V27.08zM0 .633V27.08h14.7v-2.878H3.194V.632H0zm258.118 26.262c.733-1.824 4.16-10.368 5.152-12.842l5.261 12.844.267.654.275-.652c.96-2.273 10.661-25.624 10.759-25.86L280 .633h-3.483l-7.863 19.905-3.773-9.385 4.311-10.52h-3.113l-2.85 7.113-2.954-7.113h-3.163l4.478 10.515-3.524 8.94L249.97.632h-3.505l.172.407c.1.236 9.963 23.588 10.94 25.862l.278.649.263-.656zM231.636 2.878c5.796 0 10.694 5.026 10.694 10.975 0 5.952-4.898 10.98-10.694 10.98-5.805 0-10.708-5.028-10.708-10.98 0-5.949 4.903-10.975 10.708-10.975zm0 24.83c3.708 0 7.19-1.421 9.802-4 2.635-2.612 4.087-6.11 4.087-9.855 0-3.741-1.452-7.24-4.087-9.853-2.613-2.579-6.094-4-9.802-4-3.716 0-7.202 1.421-9.819 4l-.001.002c-2.631 2.61-4.08 6.109-4.08 9.851 0 3.746 1.449 7.245 4.081 9.856 2.617 2.578 6.104 3.999 9.819 3.999zM202.357 3.51h3.107c1.627 0 2.934.41 3.884 1.216 1.008.872 1.519 2.147 1.519 3.79 0 1.496-.587 2.847-1.651 3.803-.985.89-1.913 1.405-3.752 1.405h-3.107V3.51zm11.842 23.104c-.015-.023-1.624-2.25-8.008-10.996.23-.01.488-.022.69-.039.796-.068 1.364-.162 1.958-.326 1.536-.414 2.707-1.12 3.687-2.22 1.017-1.13 1.533-2.65 1.533-4.518 0-2.695-.944-4.764-2.802-6.152-1.5-1.115-3.541-1.73-5.747-1.73h-6.342v26.446h3.189V15.002l8.254 11.95.089.127h3.836l-.337-.465zM181.306 3.51h3.106c1.639 0 2.946.41 3.887 1.216 1.006.873 1.516 2.147 1.516 3.79 0 1.494-.587 2.845-1.651 3.803-.983.89-1.913 1.405-3.752 1.405h-3.106V3.51zm11.838 23.104c-.015-.023-1.621-2.25-8.005-10.996.23-.01.489-.022.69-.039.794-.067 1.362-.162 1.96-.326 1.545-.416 2.687-1.102 3.704-2.22 1.005-1.138 1.514-2.657 1.514-4.518 0-2.69-.938-4.76-2.79-6.152-1.514-1.117-3.558-1.73-5.758-1.73h-6.343v26.446h3.19V14.982a47794.74 47794.74 0 0 0 8.253 11.97l.087.127h3.834l-.336-.465zm-56.63-11.874h8.301v-2.878h-8.3V3.51h10.791V.632H133.32V27.08h3.194V14.74zm23.726-7.958l4.238 8.68h-8.508l4.27-8.68zm13.19 19.878c-.12-.24-11.999-23.993-12.927-25.864l-.26-.528-.265.525c-.943 1.873-12.763 25.628-12.882 25.867l-.211.425h3.263l4.302-8.748h11.336l4.367 8.748h3.49l-.212-.425zM97.222 6.773l4.24 8.69h-8.523l4.283-8.69zm13.192 19.88c-.12-.238-12-23.996-12.948-25.86l-.264-.52-.259.521c-.936 1.885-12.864 25.861-12.864 25.861l-.21.423h3.264l4.3-8.741h11.337l4.353 8.741h3.504l-.213-.424zM66.004 3.51h3.233c2.44 0 4.939 1.007 6.858 2.762 2.12 1.944 3.287 4.637 3.287 7.58 0 2.94-1.168 5.63-3.287 7.575-1.92 1.758-4.418 2.765-6.858 2.765h-3.233V3.51zm3.233 23.57c3.76 0 7.197-1.441 9.68-4.058 2.324-2.442 3.657-5.785 3.657-9.17 0-3.392-1.333-6.733-3.657-9.164-2.482-2.615-5.92-4.055-9.68-4.055h-6.425V27.08h6.425zm-14.122.365l-.51-.56C53 25.124 40.36 11 37.642 7.962V27.08h-3.21V.214l.508.55c1.623 1.754 14.265 15.88 16.983 18.918V.632h3.192v26.813z" fill="#000" fill-rule="evenodd"></path></svg>