<?xml version="1.0" encoding="UTF-8"?>
<svg width="31px" height="27px" viewBox="0 0 31 27" version="1.1" xmlns="http://www.w3.org/2000/svg" xmlns:xlink="http://www.w3.org/1999/xlink">
    <!-- Generator: sketchtool 50.2 (55047) - http://www.bohemiancoding.com/sketch -->
    <title>0997F5FF-8947-47B0-96FD-6A4BBB83D131</title>
    <desc>Created with sketchtool.</desc>
    <defs></defs>
    <g id="Welcome" stroke="none" stroke-width="1" fill="none" fill-rule="evenodd">
        <g id="Desktop-HD" transform="translate(-1233.000000, -21.000000)" fill="#000000" fill-rule="nonzero" stroke="#000000">
            <g id="header_wishlist_icon" transform="translate(1234.000000, 22.000000)">
                <path d="M20.9906667,1.15722543 C24.8354167,1.15722543 27.95975,4.26069364 27.95975,8.09306358 C27.95975,10.0618497 27.1331667,11.8352601 25.8136667,13.0976879 L14.56,24.3543353 L3.10916667,12.8947977 C1.911,11.6473988 1.16783333,9.9566474 1.16783333,8.09306358 C1.16783333,4.26069364 4.28458333,1.15722543 8.13691667,1.15722543 C11.03375,1.15722543 13.5135,2.91560694 14.5675833,5.42543353 C15.6065,2.92312139 18.0938333,1.15722543 20.9906667,1.15722543 Z M14.56,3.14104046 C13.0433333,1.18728324 10.6925,0 8.12933333,0 C3.64758333,0 0,3.62947977 0,8.09306358 C0,10.1895954 0.803833333,12.1809249 2.26741667,13.6988439 L13.7334167,25.1734104 L14.56,26 L15.3865833,25.1734104 L26.6326667,13.916763 C28.2251667,12.3913295 29.12,10.317341 29.12,8.09306358 C29.12,3.62947977 25.4724167,0 20.9906667,0 C18.4275,0 16.0766667,1.18728324 14.56,3.14104046 Z" id="Shape"></path>
            </g>
        </g>
    </g>
</svg>